<?xml version="1.0" standalone="no"?>
<!DOCTYPE svg PUBLIC "-//W3C//DTD SVG 20010904//EN"
 "http://www.w3.org/TR/2001/REC-SVG-20010904/DTD/svg10.dtd">
<svg version="1.0" xmlns="http://www.w3.org/2000/svg"
 width="1536.000000pt" height="1024.000000pt" viewBox="0 0 1536.000000 1024.000000"
 preserveAspectRatio="xMidYMid meet">

<g transform="translate(0.000000,1024.000000) scale(0.100000,-0.100000)"
fill="#000000" stroke="none">
<path d="M2800 5430 l0 -500 438 0 c481 0 509 3 624 61 163 82 258 246 258
444 0 248 -143 431 -375 480 -56 12 -160 15 -507 15 l-438 0 0 -500z m835 233
c89 -47 126 -106 133 -211 5 -81 -12 -141 -55 -193 -58 -69 -141 -86 -420 -89
l-163 -1 0 261 0 262 233 -4 c215 -3 235 -5 272 -25z"/>
<path d="M4260 5430 l0 -500 168 0 167 0 -2 283 c-1 155 -2 380 -3 500 l0 217
-165 0 -165 0 0 -500z"/>
<path d="M4780 5430 l0 -500 165 0 165 0 0 331 0 331 69 -64 c38 -35 196 -183
351 -330 l281 -268 195 0 194 0 0 500 0 500 -160 0 -160 0 0 -322 0 -323 -77
76 c-43 42 -198 187 -345 322 l-267 247 -206 0 -205 0 0 -500z"/>
<path d="M6696 5918 c-178 -34 -314 -167 -351 -345 -40 -186 3 -367 113 -486
58 -62 105 -92 196 -126 l71 -26 448 -3 447 -3 0 123 0 123 -368 0 c-366 0
-367 0 -420 24 -94 43 -142 121 -142 233 0 113 41 187 130 234 32 17 67 19
418 22 l382 3 0 120 0 119 -437 -1 c-241 -1 -460 -5 -487 -11z"/>
<path d="M7790 5430 l0 -500 165 0 165 0 0 336 0 336 213 -204 c116 -113 275
-264 352 -336 l140 -132 168 0 167 0 0 500 0 500 -160 0 -160 0 0 -295 c0
-162 -2 -295 -5 -295 -3 0 -49 42 -102 93 -54 52 -196 184 -316 295 l-217 202
-205 0 -205 0 0 -500z"/>
<path d="M9340 5430 l0 -500 590 0 590 0 0 120 0 120 -422 0 -423 0 0 83 0 82
373 3 372 2 0 110 0 110 -370 0 -370 0 0 70 0 70 410 0 410 0 0 115 0 115
-580 0 -580 0 0 -500z"/>
<path d="M10618 5810 l3 -120 230 0 229 0 0 -380 0 -380 170 0 170 0 0 380 0
380 230 0 230 0 0 120 0 120 -632 0 -633 0 3 -120z"/>
</g>
</svg>
